<svg width="73" height="54" viewBox="0 0 73 54" fill="none" xmlns="http://www.w3.org/2000/svg">
<path d="M41.6484 17.3612C41.6484 17.3612 50.2818 2.65754 55.7884 0.424369C61.2951 -1.81213 55.0884 5.51973 55.0884 5.51973C55.0884 5.51973 65.8818 -1.96854 71.6484 2.51777C77.4118 7.00409 60.3484 10.249 60.3484 10.249C60.3484 10.249 65.4884 10.0893 66.5018 13.0579C67.5118 16.0266 57.2918 15.8868 57.2918 15.8868C57.2918 15.8868 60.9784 17.4544 59.1618 19.6243C57.3484 21.7943 44.5851 21.2252 44.5851 21.2252L41.6484 17.3645V17.3612Z" fill="url(#paint0_linear_391_4984)"/>
<path d="M37.5084 10.3752C35.0584 8.85762 31.8584 9.42007 30.0784 11.6832L0.885044 48.7352C-1.03829 51.1781 1.54505 54.5794 4.41838 53.3846L48.015 35.2829C50.675 34.178 52.0817 31.2526 51.275 28.4902C49.085 20.962 44.1817 14.5121 37.5084 10.3786V10.3752Z" fill="url(#paint1_linear_391_4984)"/>
<path d="M36.158 25.1155C33.1614 21.175 29.528 17.7038 27.0514 15.5205L24.748 18.4459C27.0947 20.5293 30.4647 23.7643 33.198 27.3586C33.818 28.174 34.9847 28.3338 35.8014 27.7147C36.618 27.0957 36.778 25.9309 36.158 25.1155Z" fill="url(#paint2_linear_391_4984)"/>
<path d="M25.1485 33.2428C24.4551 32.4873 23.2818 32.4374 22.5251 33.1296C21.7685 33.8219 21.7218 35 22.4118 35.7489C24.3485 37.8622 26.4785 40.9674 28.1251 43.54L31.6118 42.0923C29.8485 39.2967 27.4218 35.7156 25.1551 33.2428H25.1485Z" fill="url(#paint3_linear_391_4984)"/>
<path d="M14.5652 42.9976C13.2052 41.207 11.2852 39.2235 9.63519 37.626L7.3252 40.5581C8.80853 42.0058 10.4585 43.7264 11.6085 45.2374C12.2285 46.0528 13.3952 46.2125 14.2119 45.5935C15.0285 44.9745 15.1885 43.8096 14.5685 42.9942L14.5652 42.9976Z" fill="url(#paint4_linear_391_4984)"/>
<defs>
<linearGradient id="paint0_linear_391_4984" x1="39.274" y1="23.6795" x2="83.0601" y2="-9.59594" gradientUnits="userSpaceOnUse">
<stop stop-color="#801B92"/>
<stop offset="1" stop-color="#12F464"/>
</linearGradient>
<linearGradient id="paint1_linear_391_4984" x1="32.9312" y1="47.752" x2="15.4628" y2="24.6939" gradientUnits="userSpaceOnUse">
<stop stop-color="#FD3617"/>
<stop offset="1" stop-color="#F9AA68"/>
</linearGradient>
<linearGradient id="paint2_linear_391_4984" x1="39.4848" y1="33.6586" x2="21.7389" y2="10.2341" gradientUnits="userSpaceOnUse">
<stop stop-color="#FD3617"/>
<stop offset="1" stop-color="#F9AA68"/>
</linearGradient>
<linearGradient id="paint3_linear_391_4984" x1="30.1736" y1="42.9229" x2="15.0377" y2="22.9438" gradientUnits="userSpaceOnUse">
<stop stop-color="#FD3617"/>
<stop offset="1" stop-color="#F9AA68"/>
</linearGradient>
<linearGradient id="paint4_linear_391_4984" x1="15.0539" y1="47.1875" x2="0.983852" y2="28.6152" gradientUnits="userSpaceOnUse">
<stop stop-color="#FD3617"/>
<stop offset="1" stop-color="#F9AA68"/>
</linearGradient>
</defs>
</svg>
